<svg fill="none" height="750" viewBox="0 0 750 750" width="750" xmlns="http://www.w3.org/2000/svg"><g clip-rule="evenodd" fill-rule="evenodd"><path d="m250 560.577c-105.401-42.612-104.751 10.881-151.7294-68-46.9784-78.88-3.5541-195.098 134.3054-231 137.859-35.902 329.424-205.3163 431.689 76.4 28.737 79.165-26.64 290.023-225.596 289.602-142.424-.304-117.434-39.002-188.669-67.002z" fill="#64fcd9"/><g fill="#fff"><path d="m423.759 397.577c-.497-.391-.369-1.588-.221-2.394.937-5.112 5.456-8.535 9.442-11.728 3.985-3.194 8.109-7.484 7.695-12.669-.559-7.005 2.669-13.648 4.64-20.377s2.32-15.019-2.703-19.775c-1.74-1.648-3.959-2.681-5.712-4.315-1.754-1.633-3.014-4.284-2.017-6.493-.849.509-1.699 1.018-2.548 1.528-.237-3.416-4.118-4.936-7.037-6.572-5.008-2.807-8.67-8.476-8.268-14.335s5.512-11.255 11.203-10.925c2.444.142 5.582.915 6.796-1.275 4.484-8.089 16.114-9.021 21.395-16.582 1.151-1.648 6.703-6.567 6.155-3.088-1.218 7.735 5.558 5.491 8.23 8.729 11.65 14.114 12.548 35.502 10.446 55.771-4.496 43.372-31.304 85.106-57.496 64.5z"/><path d="m455.382 281.22c2.713-2.918 6.667-4.643 10.651-4.643 6.584 3.413 13.096 8.03 19.536 13.851 4.038-1.598 6.884-1.923 8.537-.974 2.479 1.423 3.998 4.123 4.717 6.89 2.305 8.874-2.598 18.055-8.63 24.958-2.631 3.01-5.563 5.886-7.174 9.546-1.611 3.659-1.539 8.432 1.393 11.15 7.331 6.794 9.777 17.513 9.368 27.501s-3.257 19.696-4.851 29.565c-1.77 10.952-1.991 22.154-.655 33.168.413 3.401 1.007 6.882 2.783 9.812s4.991 5.219 8.407 4.967c-1.21 1.731-4.126 1.851-5.475.225 1.328 1.381 2.656 2.761 3.984 4.142-1.607-.337-3.213-.674-4.819-1.01 13.428 7.634 27.333 14.428 41.608 20.327-.834-2.805-3.775-4.331-6.436-5.548-7.431-3.398-14.862-6.797-22.293-10.195 11.163 1.012 21.943 5.861 30.108 13.543 9.836 9.254 25.756 8.736 36.422 17.019 2.287 1.777 4.345 4.044 5.113 6.837 1.078 3.923-.648 8.214-3.49 11.125-2.842 2.912-6.646 4.67-10.451 6.112-11.367 4.306-23.59 6.338-35.738 5.94-1.031-1.812-.001-4.225 1.677-5.463 1.677-1.237 3.814-1.616 5.851-2.054 8.669-1.865 16.97-5.426 24.294-10.424 1.646-1.123 3.432-3.139 2.376-4.828-.392-.628-1.089-.985-1.757-1.304-11.502-5.491-24.352-8.131-37.087-7.62 3.759-.679 7.519-1.359 11.278-2.038-9.936-5.928-20.381-11.001-31.183-15.145-3.358-1.289-7.446-2.397-10.301-.208-6.967 5.343-13.935 10.686-20.902 16.029 8.984.158 17.925 2.368 25.949 6.413-1.836 4.013-5.962 6.876-10.363 7.19 2.082-2.136 4.165-4.271 6.247-6.407-14.831-9.194-35.983.415-50.835-8.745-6.625-4.086-11.016-11.449-18.198-14.449-6.85-2.862-14.654-1.117-21.862.665-4.727 1.169-9.693 2.467-13.181 5.865.097-3.419 3.346-5.893 6.541-7.111s6.742-1.781 9.431-3.893c2.729-2.143 4.123-5.529 6.274-8.25 2.152-2.721 5.965-4.867 9.005-3.196-.937-7.226 5.202-13.119 9.363-19.099 4.74-6.811 7.273-15.133 7.132-23.43-5.28 2.807-7.655 10.042-5.064 15.433 1.15 2.394-1.141 5.415-3.79 5.604s-5.08-1.761-6.277-4.132c-1.198-2.371-1.416-5.1-1.595-7.75-.253-3.745-.463-7.568.501-11.195 1.827-6.873 7.559-11.984 13.507-15.879s12.479-7.081 17.466-12.15c5.501-5.591 8.76-13.329 8.919-21.172 2.294 10.451-2.878-76.278-6.031-75.565zm-24.193 143.805c.056-2.161-.615-4.335-1.879-6.088-.441 2.171.292 4.543 1.879 6.088z"/><path d="m356.72 421.616c-4.333 3.044-8.818 6.254-11.339 10.902-2.522 4.648-2.405 11.175 1.709 14.509 10.068 8.158 6.848 24.402 12.858 35.863 3.298 6.29 9.646 12.248 7.865 19.119-1.395 5.384-7.186 8.196-12.346 10.316-2.422.995-4.985 2.011-7.583 1.673-2.599-.339-5.145-2.572-4.825-5.163.574-4.636 8.718-5.475 8.863-10.143.041-1.311-.631-2.527-1.283-3.666-4.408-7.702-8.816-15.404-13.224-23.106-5.156 10.765-7.226 22.976-5.905 34.83.415 3.72-2.369 7.205-5.753 8.83-3.384 1.626-7.261 1.799-11.015 1.943-3.076.117-6.349.188-8.99-1.387s-4.121-5.458-2.133-7.799c1.788-2.107 5.068-1.824 7.678-2.749 6.93-2.457 7.227-11.98 6.241-19.243-1.903-14.032-3.807-28.064-5.711-42.096-.964-7.106-2.041-14.512-6.156-20.395-14.151-20.234 4.364-51.091-9.016-71.839-4.108-6.37-8.239-12.981-9.615-20.427s.619-16.008 6.793-20.423c4.633-3.312 5.19-9.806 5.824-15.453 1.161-10.342 3.998-20.496 8.368-29.948-9.966-7.243-22.046-11.561-34.36-12.282.381 2.242 1.194 4.412 2.38 6.355-7.088-2.653-12.55-9.223-13.848-16.655-1.135 2.626-2.269 5.253-3.404 7.88-9.758-19.883-2.735-43.503 4.409-64.46 2.08-6.102 4.16-12.204 6.24-18.306 2.502-7.342 6.081-15.724 13.622-17.639 4.641-1.179 10.897 3.278 8.448 7.379-6.086-1.525-2.786 4.6-.493 2.009 5.201-5.879 9.442-12.864 15.667-17.684 11.869-9.188 29.528-8.603 42.413-.892 12.884 7.711 21.326 21.387 25.505 35.772.605 2.082 1.117 4.383.221 6.358s-3.829 3.08-5.311 1.493c-2.064-2.211-4.931 1.968-4.796 4.985.695 15.46 10.559 28.862 15.148 43.647 4.475 14.419 3.838 29.853 3.159 44.931-.946 20.968-3.56 78.98-4.409 86.978-1.6 15.069-4.927 30.021-4.724 45.172.262 19.469 6.332 38.352 12.732 56.749 2.663 7.655 5.503 15.479 10.802 21.625 5.298 6.147 13.659 10.34 21.574 8.482-5.615 5.613-15.205 5.416-22.175 1.598-6.971-3.817-11.878-10.448-16.336-17.01-2.845-4.188-10.58 4.144-13.939.354 4.133-.864 8.041-2.773 11.257-5.499-7.029-18.496-14.058-36.992-21.087-55.488zm-36.097-220.002c-.72-.728-1.842-1.449-2.68-.86.923.931.649 2.728-.509 3.344-1.379-.503-.888-2.539-1.274-3.95-.496-1.815-2.6-2.604-4.438-3.032-9.436-2.2-20.409-2.576-26.679-9.938-.583-.685-1.134-1.438-1.925-1.87-1.617-.882-3.75-.065-4.898 1.372s-1.534 3.323-1.802 5.14c-1.356 9.203-.567 18.713 2.288 27.569.515 1.598 1.125 3.222 2.273 4.451 3.139 3.358 8.567 2.415 13.107 1.644 4.225-.717 8.516-1.051 12.801-.996 1.987.025 3.944-.426 5.879-.876 5.112-1.187 10.225-2.374 15.338-3.561.064-6.803-2.69-13.59-7.481-18.437z"/></g><path d="m508.796 600.632 12.166 1.8c2.226.329 4.685.789 6.038 2.557-.623.544-1.569.459-2.394.34-4.707-.674-9.414-1.349-14.121-2.023l5.6 6.434c.965 1.108 2.004 2.266 3.419 2.707 1.24.386 3.018.508 3.166 1.777-1.705.715-3.731.274-5.303-.692s-2.782-2.394-3.964-3.798c-1.9-2.255-3.799-4.511-5.699-6.767-.497-.59-1-1.464-.493-2.045.366-.419 1.028-.372 1.585-.29zm65.151-50.055c.375 1.622-1.303 2.877-2.684 3.753-11.07 7.024-16.545 20.287-21.357 32.711-.372.961-.469 2.469.526 2.624 1.928-3.63 5.711-6.147 9.723-6.47-3.045 2.123-4.264 6.16-4.455 9.937s.428 7.573.082 11.338c-1.893-.184-2.381-2.767-2.358-4.721.046-3.867.091-7.735.137-11.602-6.993 4.307-8.673 13.779-9.659 22.096-.389.591-1.376.336-1.719-.284-.343-.621-.24-1.39-.122-2.093 2.862-16.928 9.371-33.195 18.925-47.295-9.23 4.947-17.109 12.526-22.522 21.665-1.386-2.584.59-5.668 2.547-7.827 9.219-10.169 20.513-18.341 32.936-23.832zm-85.865-9 14.625 10.167c7.731 5.375 15.541 10.818 21.808 17.843-.431-6.419 1.181-12.959 4.547-18.442.398-.649 1.097-1.374 1.791-1.06.49.222.631.839.711 1.371 1.381 9.213 2.762 18.426 4.143 27.639-3.969-7.378-5.912-15.832-5.565-24.201-2.416 3.883-4.396 8.364-3.785 12.895 1.491 11.056 17.027 16.421 17.643 27.561-13.542-16.683-27.632-33.74-46.517-44.003 8.793 12.485 18.832 24.094 29.919 34.598 3.129 2.964 6.604 6.446 6.381 10.748-7.375-8.666-19.965-12.506-30.926-9.433 6.298 2.339 12.435 5.108 18.355 8.283 3.474 1.862 7.169 4.233 8.206 8.034-9.995-7.478-21.586-12.816-33.769-15.551 9.223-5.372 21.251-5.57 30.645-.502-14.191-12.79-25.81-28.122-37.337-43.354-.574-.759-1.181-1.692-.875-2.593zm-59.031-50.992c22.79 4.369 45.192 10.756 66.857 19.062 2.568.984 5.205 2.047 7.14 3.998 2.31 2.33 3.319 5.612 4.249 8.756 3.901 13.195 7.802 26.391 11.703 39.586-7.016-13.775-12.032-28.564-14.843-43.761-17.274 6.888-36.525 5.914-55.118 5.372-28.647-.836-57.332-.396-85.941 1.319 1.911.428 3.822.856 5.733 1.283-4.363 1.461-9.077 1.341-13.676 1.179-34.709-1.226-69.364-3.994-103.828-8.292-7.347-.916-15.07-2.057-20.906-6.607l-15.788 46.854c-.901 2.674-3.884 5.91-5.814 3.849-2.265-2.418-6.182.101-8.42 2.544-8.505 9.284-17.01 18.567-25.515 27.85 4.983-8.621 11.282-16.483 18.612-23.23-8.11-.146-16.209 3.479-21.496 9.62 2.03-12.282 14.678-21.803 27.062-20.373-8.259 1.139-16.036 5.462-21.355 11.872 8.976-1.167 17.625-4.761 24.779-10.299 2.578-1.995 6.6-1.812 8.984.41 4.975-14.869 9.949-29.737 14.923-44.605.721-2.154 1.323-4.852-.314-6.428 27.994-9.267 57.406-14.246 86.894-14.711-23.439 3.639-46.878 7.279-70.318 10.918-3.604.559-7.949 1.763-8.799 5.305 4.044 1.026 8.087 2.051 12.154 2.98 62.233 14.216 127.084 5.437 190.921 6.206 22.066.265 44.693 1.606 65.655-5.281-31.689-14.684-66.064-23.568-100.909-26.079 8.883-2.434 18.327-1.031 27.374.703zm-263.365 13.719c10.053 2.401 19.092 7.782 27.952 13.088 6.546 3.92 13.84 9.014 14.477 16.53l.017.263-.183-.208c-7.024-7.903-15.329-14.676-24.497-19.97 6.3 7.11 12.601 14.22 18.901 21.329 1.629 1.839 3.323 4.148 3.762 6.437.087-.106.223-.176.378-.163l-.048-.033c.461.122.701.64.46.993-.248.029-.52-.028-.704-.163.086.966-.078 1.923-.591 2.829-2.197-3.566-4.96-6.786-8.156-9.502 2.528 5.454 5.055 10.909 7.583 16.364-2.571-.852-4.835-2.595-6.309-4.859-.337 1.879.496 3.918 2.055 5.028-2.574 1.292-5.485 1.91-8.363 1.776 1.159.84 2.319 1.68 3.479 2.52l-24.018 1.014c.739-1.293 1.763-2.423 2.978-3.287-18.723-2.007-32.408-17.674-24.019-12.014 13.729 9.261 31.325 12.629 47.522 9.096-8.966-2.611-17.391-7.048-24.604-12.959 5.114-1.257 10.78-.023 14.912 3.226l.298.24-11.166-15.533c-3.722-5.178-7.445-10.357-11.168-15.535 11.061 11.496 22.121 22.992 33.182 34.488-5.849-17.193-18.249-32.087-34.13-40.995zm24.882 49.884-.113.128c-.365-.268-.73.487-.405.802.403.128.873.02 1.179-.271-.22-.22-.44-.44-.661-.659zm402.801-51.578c8.478 1.842 16.956 3.684 25.434 5.526 2.6.564 5.888 2.079 5.452 4.738-.177 1.084-.986 1.937-1.783 2.682-2.892 2.705-6.162 4.994-9.681 6.775l8.842 2.216c2.345.588 4.811 1.243 6.53 2.963s2.284 4.878.521 6.552c2.525 4.379 4.877 8.86 7.049 13.429 1.079 2.269 2.032 5.223.36 7.086-2.876-6.529-5.753-13.058-8.629-19.586-3.778 2.317-8.4 3.182-12.745 2.385 1.213-1.668 3.454-2.111 5.486-2.335 2.032-.223 4.245-.427 5.733-1.847 1.488-1.421 1.408-4.535-.565-5.075-5.535-1.515-11.069-3.029-16.604-4.544 4.131-3.803 8.544-7.29 13.191-10.422.24-1.23-1.246-2.003-2.441-2.326-12.981-3.508-26.193-6.139-39.519-7.87 3.997-2.225 8.91-1.315 13.369-.347zm-429.217 35.978c.567.092 1.017.542 1.441.958 3.578 3.511 8.033 5.983 12.77 7.087 2.368.552 5.015.886 6.637 2.82-8.021.849-16.34-2.695-21.635-9.22-.155-.191-.313-.396-.355-.645-.102-.606.574-1.091 1.142-1zm16.367 2.272c4.066 3.212 8.83 5.542 13.868 6.783-4.018-3.281-8.805-5.622-13.868-6.783zm9.234-2.398c1.504 3.826 4.673 6.969 8.521 8.45-2.332-3.271-5.227-6.142-8.521-8.45zm77.619-214.14c-5.634 2.743-10.793 6.451-15.182 10.912-9.869 10.033-22.601 17.241-36.306 20.551l34.696-19.635c-.551-3.812-6.289-3.245-9.739-1.506-5.982 3.015-11.807 6.376-17.166 10.388-3.18 2.381-6.19 4.988-8.999 7.793-10.989 10.975-18.722 24.81-24.552 39.181-8.378 20.651-13.096 43.082-11.086 65.265s11.129 44.092 27.329 59.446c.568-1.747 1.135-3.495 1.703-5.242 2.496 1.24 5.454 1.53 8.144.798-3.227-1.871-6.622-3.913-8.329-7.221-1.707-3.307-.802-8.227 2.72-9.463-3.434-3.069-5.793-7.308-6.587-11.834 3.874-.712 7.748-1.424 11.622-2.136-3.799-8.685-3.039-19.206 1.969-27.261.785-1.263 2.052-2.622 3.498-2.259 2.31.58 2.986 5.048 5.19 4.149l8.613-12.182 8.339-11.796-.137.203c-3.294 4.988-3.424 11.905-.249 16.983 4.426-4.668 10.445-7.81 16.817-8.777.523 2.895 1.046 5.791 1.569 8.687 2.346-1.943 4.869-3.965 7.895-4.355s6.572 1.642 6.586 4.681c.012 2.502-2.185 5.282-.578 7.205 2.32-1.494 4.815-3.041 7.577-3.032s5.692 2.324 5.24 5.039c-.689 4.141-1.378 8.282-2.068 12.423 4.684-1.527 11.069-2.445 13.425 1.866 1.694 3.102-.07 6.976-2.365 9.668-2.295 2.691-5.224 5.056-6.321 8.414-1.522-3.127 1.342-6.489 3.753-9 2.412-2.51 4.578-6.7 2.069-9.115-3.347-3.222-9.11 2.009-13.399.208.935-5.572 1.87-11.145 2.805-16.717-4.853-.018-9.704 1.394-13.784 4.012-.382-4.403-.114-8.86.793-13.186-4.744.994-9.409 2.366-13.935 4.096-1.052-2.793-1.489-5.814-1.274-8.789l-15.781 9.194c-.412-1.558-1.484-2.931-2.898-3.713 1.435 8.29 2.87 16.58 4.304 24.87-4.485-8.18-6.576-17.645-5.952-26.945-4.91 3.137-8.445 8.336-9.549 14.042-3.123-.713-5.879-2.879-7.301-5.738-5.742 8.049-6.494 19.348-1.868 28.082-3.747 1.63-7.721 2.743-11.773 3.296l7.202 11.384c-1.881.245-3.673 1.119-5.02 2.449 1.365 6.164 6.484 11.344 12.651 12.801-2.888 1.804-6.338 2.704-9.744 2.542 4.233 1.223 8.219 3.287 11.655 6.037-4.88-.776-9.605-2.507-13.827-5.064 2.114 4.46 5.965 8.075 10.561 9.914-2.742.109-5.511-.537-7.919-1.847 2.624 3.475 3.95 7.9 3.666 12.239-1.857-3.64-3.715-7.28-5.573-10.92-.204 3.607-.407 7.215-.611 10.822-.424-.507-.853-1.01-1.287-1.508l-.434-.493.101-.239c1.615-4.058.381-8.825-2.018-12.504-2.461-3.774-6.003-6.692-9.286-9.783-13.96-13.139-23.739-29.976-33.318-46.556-3.604-6.239-7.208-12.477-10.812-18.716-4.839-8.376-9.853-17.892-7.395-27.241.351-1.337.907-2.709 2.024-3.529-1.735 1.964-.419 5.091 1.363 7.013s4.108 3.693 4.482 6.282c4.015 27.822 21.311 51.686 38.075 74.297-20.701-35.286-17.334-80.717-.58-118.023 9.115-20.296 22.859-39.764 43.065-49.213 4.5-2.105 9.231-3.67 13.948-5.229 6.518-2.155 13.035-4.31 19.553-6.465zm260.53 197.026c.564.132 1.227.387 1.332.969.088.492-.284.935-.64 1.277-1.829 1.753-4.011 3.119-6.371 3.987-.744.274-.722 1.469-.133 2.007.59.538 1.449.597 2.239.63 29.224 1.194 58.447 2.389 87.671 3.584-.284 1.509-2.242 1.814-3.746 1.771-27.688-.788-55.368-1.837-83.037-3.145-2.864-.136-6.746-1.493-6.19-4.364.528-2.726 4.397-2.759 6.483-4.544l-12.51-1.775c4.829-1.408 10.008-1.546 14.902-.397zm-169.657 3.915.165.114c.791.546 1.975.418 2.631-.284-.837-.547-2.031-.475-2.796.17zm-9.146-383.794c12.884 7.711 21.326 21.387 25.505 35.772.605 2.082 1.117 4.383.221 6.358-.872 1.921-3.672 3.019-5.187 1.616l-.124-.123c-2.064-2.211-4.932 1.968-4.796 4.985.695 15.46 10.559 28.862 15.148 43.647 4.475 14.419 3.838 29.853 3.159 44.931-.946 20.968-1.891 41.936-2.836 62.904-.362 8.035-.724 16.076-1.574 24.074-1.599 15.069-4.926 30.021-4.723 45.172.262 19.469 6.332 38.352 12.732 56.749 2.663 7.655 5.503 15.479 10.802 21.625 5.298 6.147 13.659 10.34 21.574 8.482-5.615 5.613-15.205 5.416-22.175 1.598-6.971-3.817-11.878-10.448-16.336-17.01-2.845-4.188-10.58 4.144-13.939.354 4.133-.864 8.041-2.773 11.257-5.499-7.029-18.496-14.058-36.992-21.087-55.488-4.333 3.044-8.818 6.254-11.339 10.902-2.522 4.648-2.405 11.175 1.709 14.509 10.068 8.158 6.848 24.402 12.858 35.863 3.298 6.29 9.646 12.248 7.865 19.119-1.395 5.384-7.186 8.196-12.346 10.316-2.422.995-4.985 2.011-7.583 1.673-2.599-.339-5.145-2.572-4.825-5.163.574-4.636 8.718-5.475 8.863-10.143.041-1.311-.631-2.527-1.283-3.666-4.408-7.702-8.816-15.404-13.224-23.106-5.156 10.765-7.227 22.976-5.905 34.83.415 3.72-2.369 7.205-5.753 8.83-3.384 1.626-7.261 1.799-11.015 1.943-3.076.117-6.349.188-8.99-1.387s-4.121-5.458-2.133-7.799c1.788-2.107 5.068-1.824 7.678-2.749 6.93-2.457 7.227-11.98 6.241-19.243l-5.711-42.096c-.964-7.106-2.041-14.512-6.156-20.395-14.151-20.234 4.364-51.091-9.017-71.839-4.107-6.37-8.238-12.981-9.614-20.427s.619-16.008 6.793-20.423c4.633-3.312 5.19-9.806 5.824-15.453 1.161-10.342 3.998-20.496 8.368-29.948-9.966-7.243-22.046-11.561-34.36-12.282.381 2.242 1.194 4.412 2.38 6.355-7.088-2.653-12.55-9.223-13.848-16.655-1.135 2.626-2.269 5.253-3.404 7.88-9.758-19.883-2.735-43.503 4.409-64.46 2.08-6.102 4.16-12.204 6.24-18.306 2.502-7.342 6.081-15.724 13.622-17.639 4.641-1.179 10.897 3.278 8.448 7.379-6.087-1.525-12.566 1.772-16.581 6.578-4.014 4.806-6.07 10.896-8.043 16.831-6.616 19.912-13.303 41.125-8.298 61.498.762-1.417 2.215-2.445 3.809-2.695 1.645 4.613 4.172 8.913 7.404 12.6 6.834-2.506 14.375-3.066 21.507-1.598-.543.667-1.087 1.335-1.63 2.002 5.666 3.853 12.228 6.388 19.019 7.349 3.652-6.177 7.303-12.354 10.955-18.53l.672-1.14c3.249-5.522 6.413-11.228 7.43-17.529-11.103 2.774-22.469 4.503-33.896 5.156-4.981.284-10.522.172-14.192-3.196-2.23-2.046-3.387-4.989-4.238-7.888-3.075-10.473-3.03-21.835.13-32.284-4.492-.267-5.756-6.919-3.15-10.574 2.606-3.654 7.14-5.288 10.918-7.722 9.538-6.147 14.388-17.589 23.358-24.533 11.869-9.188 29.528-8.603 42.413-.892zm116.934 135.108c9.876 5.119 18.738 12.188 25.926 20.68.37 4.58 1.096 9.131 2.171 13.599 1.473-4.293 2.965-8.856 1.983-13.287-.982-4.43-5.481-8.408-9.823-7.092 1.806-2.216 5.337-2.446 7.816-1.023s3.998 4.123 4.717 6.89c2.305 8.874-2.598 18.055-8.63 24.958-2.631 3.01-5.563 5.886-7.174 9.546-1.611 3.659-1.539 8.432 1.393 11.15 7.331 6.794 9.777 17.513 9.368 27.501s-3.257 19.696-4.851 29.565c-1.77 10.952-1.991 22.154-.655 33.168.413 3.401 1.007 6.882 2.783 9.812s4.991 5.219 8.407 4.967c-1.096 1.569-3.595 1.815-5.057.637l-.129-.112 1.703 1.771c.664.69 1.328 1.38 1.992 2.071-1.607-.337-3.213-.674-4.819-1.01 13.428 7.634 27.333 14.428 41.608 20.327-.834-2.805-3.775-4.331-6.436-5.548-7.431-3.398-14.862-6.797-22.293-10.195 11.163 1.012 21.943 5.861 30.108 13.543 9.836 9.254 25.756 8.736 36.422 17.019 2.287 1.777 4.345 4.044 5.113 6.836 1.078 3.924-.648 8.215-3.49 11.126-2.842 2.912-6.646 4.67-10.451 6.112-11.367 4.306-23.59 6.338-35.738 5.94-1.031-1.812-.001-4.225 1.677-5.463 1.677-1.237 3.814-1.616 5.851-2.054 8.669-1.865 16.97-5.426 24.294-10.424 1.646-1.123 3.432-3.139 2.376-4.828-.392-.628-1.089-.985-1.757-1.304-11.502-5.491-24.352-8.131-37.087-7.62l11.278-2.038c-9.936-5.928-20.381-11.001-31.183-15.145-3.358-1.289-7.446-2.397-10.301-.208-6.967 5.343-13.935 10.686-20.902 16.029 8.984.158 17.925 2.368 25.949 6.413-1.836 4.013-5.962 6.876-10.363 7.19 2.082-2.136 4.165-4.271 6.247-6.407-14.831-9.194-35.983.415-50.835-8.745-6.625-4.086-11.016-11.449-18.198-14.449-6.85-2.862-14.654-1.117-21.862.665-4.727 1.169-9.693 2.467-13.181 5.865.097-3.419 3.346-5.893 6.541-7.111s6.742-1.781 9.431-3.893c2.729-2.143 4.123-5.529 6.274-8.25 2.152-2.721 5.965-4.867 9.005-3.196-.937-7.226 5.202-13.119 9.363-19.099 4.74-6.811 7.273-15.133 7.132-23.43-5.28 2.806-7.655 10.042-5.064 15.433 1.15 2.394-1.141 5.415-3.79 5.604-2.649.188-5.08-1.761-6.277-4.132-1.198-2.371-1.416-5.1-1.595-7.75-.253-3.745-.463-7.568.501-11.195 1.827-6.873 7.559-11.984 13.507-15.879s12.479-7.081 17.466-12.15c5.501-5.591 8.76-13.329 8.919-21.172 2.294 10.451-3.117 22.111-12.579 27.103-8.366 4.414-16.872 9.418-22.112 17.295-5.241 7.877-6.17 19.409.336 26.277-1.067-5.581.425-11.599 3.974-16.036 2.874-3.591 6.892-6.055 10.863-8.376 9.208-5.381 18.634-10.391 28.245-15.013-.652-2.479 1.402-5.293 3.961-5.427-2.892-4.606-.147-11.661 5.097-13.099-1.546 1.974-3.138 4.042-3.651 6.497-.513 2.454.411 5.405 2.718 6.385-4.541.03-5.325 7.268-9.496 9.066-8.586 3.702-16.905 8.023-24.873 12.917-.588.362-1.195.762-1.763 1.204.109-.001.224.03.344.097.608 4.167.686 8.41.232 12.596-.064.583-.322 1.333-.913 1.305-.601-.028-.777-.822-.778-1.42l-.018-10.614c-.001-.399.107-.867.292-1.246-1.106 1.046-1.904 2.294-1.837 3.78.351 7.82-1.935 15.736-6.401 22.164 4.932-4.295 9.863-8.589 14.795-12.884 1.586-1.381 4.982-2.039 4.94.064-7.553 5.024-15.228 10.158-20.95 17.197s-9.296 16.406-7.307 25.258c-2.208-.825-2.402-3.775-2.925-6.075-.522-2.299-3.321-4.703-4.891-2.945-3.72 4.167-7.44 8.334-11.161 12.501 8.235-5.098 19.892-3.768 26.768 3.054 9.111 9.04 21.53 17.644 33.839 14.012 11.12-3.282 17.621-15.44 28.491-19.477-9.936-24.05-12.034-51.268-5.9-76.557 1.721-7.096 4.09-14.265 3.318-21.526-1.197-11.252-9.65-20.438-12.463-31.398-1.202 3.172-4.314 5.531-7.692 5.829 3.868-4.957 7.737-9.915 11.606-14.872 5.919-7.586 7.25-18.504 3.283-27.271s-13.073-14.981-22.683-15.429c1.211 1.173 2.423 2.346 3.634 3.519-2.208.768-4.415 1.536-6.623 2.305-.415-1.488-.829-2.975-1.244-4.462 1.651-1.335 3.301-2.669 4.952-4.003-3.153.714-6.306 1.427-9.459 2.14 2.713-2.918 6.667-4.643 10.651-4.643zm-163.394-125.158c-9.264 6.647-16.873 15.283-24.394 23.841-1.889 2.219 1.673 4.982 4.516 5.646 12.769 2.983 26.031 3.86 39.083 2.585-3.487 4.926-10.593 5.523-16.576 4.627-5.984-.897-12.131-2.797-17.95-1.143 11.897 5.18 24.629 8.45 37.557 9.646l-4.36 2.552c8.765 4.715 11.458 16.438 9.292 26.126-2.165 9.687-7.995 18.077-12.692 26.829-8.441 15.728-13.427 33.285-14.508 51.087 11.98-4.342 16.068-19.025 17.193-31.677s1.638-26.889 11.007-35.503c-7.121 16.047-9.671 34.078-7.279 51.461-9.982 9.065-19.964 18.129-29.946 27.193-7.312 6.639-3.671 18.569.481 27.515.505 1.088 1.067 2.241 2.102 2.852 2.566 1.515 5.709-1.54 5.976-4.499.268-2.96-1.017-5.866-.967-8.837.051-2.972 2.567-6.367 5.402-5.442-3.075-2.71.661-7.527 4.257-9.501 9.551-5.242 20.336-8.235 31.232-8.667 3.285-.13 4.757-4.036 5.802-7.142 1.044-3.106 3.879-6.689 6.866-5.321-5.403-18.928 5.53-38.63 5.271-58.307 6.632 18.569-10.748 40.255-2.061 57.963-3.381 2.159-6.762 4.319-10.144 6.479 2.836 1.152 5.251 3.304 6.714 5.984-16.556 1.56-32.815 6.206-47.685 13.626 3.114 2.038 2.103 7.796-1.521 8.658-5.373 22.465-2.875 46.719 6.966 67.628 1.632-8.783 7.776-16.61 15.939-20.303-8.481 6.702-13.463 17.066-15.475 27.663-2.011 10.597-1.313 21.511-.143 32.233 1.272 11.65 3.092 23.24 5.453 34.72 1.608 7.818 3.471 15.884 1.806 23.69s-8.051 15.278-16.061 15.271c5.323 3.117 11.724 4.362 17.832 3.471 5.773-.842 8.25-7.961 7.845-13.76-.405-5.8-2.431-11.729-.717-17.286.853-2.766 2.577-5.184 3.623-7.883 1.877-4.84 1.464-10.207 1.559-15.394.212-11.651 3.174-23.244 8.578-33.579.935 1.838.597 4.24-.81 5.75 22.848-18.421 36.497-47.656 35.917-76.934l-1.94 3.112c1.741-30.105 3.483-60.209 5.225-90.313.43-7.446.858-14.965-.369-22.323-3.483-20.898-20.029-39.396-17.589-60.44-4.88-1.654-9.761-3.309-14.642-4.963 6.707.532 13.413 1.065 20.119 1.597 1.098.087 2.355.117 3.116-.676.779-.813.664-2.108.425-3.206-3.014-13.838-16.478-22.472-28.774-29.573 6.784 1.019 13.17 4.483 17.711 9.606-4.145-10.275-15.297-16.653-26.393-17.299-11.397-.664-22.604 3.913-31.869 10.56zm248.404 353.797c-5.008 4.05-11.867 4.604-18.21 5.718-1.089.191-2.402.624-2.579 1.716 1.156.717 2.609.689 3.967.611 11.141-.643 22.171-3.162 32.487-7.419-.58-1.333-2.499-1.162-3.897-.766-1.046.296-2.093.592-3.139.889-1.192.337-2.496.67-3.638.188-1.142-.481-1.794-2.174-.861-2.99-1.572-.214-2.896 1.055-4.13 2.053zm-211.175-63.41c-2.069 7.002-3.002 14.447-1.725 21.634 1.869 10.511 8.221 19.582 13.909 28.628 1.745 2.777 3.511 5.94 2.85 9.15-.716 3.479-3.998 5.74-7.013 7.632 5 2.413 10.689-1.232 15.028-4.688.658-.525 1.362-1.123 1.506-1.951.132-.759-.246-1.503-.613-2.181-4.183-7.748-8.366-15.495-12.548-23.242l-.096-5.448c-.055-3.167-.115-6.368-.89-9.44-1.851-7.334-7.52-13.1-10.408-20.094zm-114.412 63.135c.357.324.546.811.916 1.121.567.478 1.384.419 2.114.516s1.574.58 1.511 1.326c-2.073 1.133-4.824.81-6.589-.773-.536-.552-.545-1.543-.02-2.105.526-.562 1.499-.603 2.068-.085zm299.551-4.352c.474.08 1.087.356.981.826-.053.235-.276.384-.483.504-2.459 1.431-5.25 2.283-8.087 2.467-1.028.066-1.902.724-2.693 1.402l-.18.156c-.838.73-1.744 1.504-2.847 1.623-1.103.118-2.37-.792-2.159-1.884.186-.967 1.293-1.401 2.238-1.668 1.709-.483 3.419-.966 5.129-1.449.229-.302.313-.709.222-1.078l-12.31.181c-.469.007-.967.006-1.365-.244-.397-.249-.614-.845-.309-1.202 7.251-.97 14.648-.846 21.863.366zm-29.739-45.143c-1.293 1.781-.507 4.442 1.123 5.92s3.854 2.068 5.986 2.61c2.026.515 4.051 1.03 6.076 1.544.55.14 1.183.265 1.643-.067.28-.204.334-.64.204-.934l-.02-.037 1.107.644c16.505 9.53 33.899 17.519 51.883 23.828 2.82.989 3.46 5.011 1.969 7.601-1.49 2.591-4.319 4.059-7.007 5.366-1.06.516-1.959 2.367-.783 2.457 3.382-1.635 7.285-2.172 10.982-1.511 3.378.604 6.682-2.407 7.165-5.805.484-3.398-1.312-6.806-3.866-9.099-2.553-2.292-5.785-3.662-8.976-4.923-19.814-7.827-40.897-13.143-58.787-24.711-2.159-1.397-5.398-2.731-6.927-.663zm-107.861 32.474c3.891 5.198 9.439 9.146 15.637 11.126 1.89.604 3.912 1.031 5.852.616-.036-.947-1.244-1.286-2.181-1.449-3.53-.613-6.838-2.434-9.237-5.086-1.205-1.332-2.203-2.879-3.647-3.95-1.809-1.34-4.235-1.792-6.424-1.257zm-128.8-7.335c1.759.099.721 3.457 2.21 4.401.594.377 1.362.198 2.054.073 4.102-.738 8.558 1.148 10.891 4.611.586.869.016 2.14-.901 2.643-.918.504-2.031.445-3.07.324-1.622-.189-2.751 1.557-3.313 3.094-.562 1.538-1.223 3.367-2.806 3.772-1.213.31-2.448-.399-3.401-1.214-.952-.815-1.834-1.793-3.022-2.187-1.189-.395-2.804.131-3.005 1.37-.218 1.343-2.056 1.522-3.403 1.358l-4.811-.583c-.291-1.328 1.593-1.997 2.937-1.82 1.345.177 3.06.447 3.748-.725.356-.606.269-1.422.709-1.971.725-.907 2.167-.417 3.183.143 1.088.6 2.175 1.199 3.263 1.799.996.549 2.072 1.116 3.203 1.001 1.131-.114 2.222-1.248 1.844-2.323-.482-1.373.975-2.693 2.384-3.043 1.41-.35 2.97-.227 4.221-.966-2.463-3.144-7.348-4.045-10.765-1.985-1.027.619-1.98-.98-1.973-2.18.008-1.201-.05-2.823-1.224-3.06-.894-.18-1.609.679-2.252 1.328-.642.649-1.864 1.094-2.347.319.61-2.469 3.113-4.322 5.646-4.179zm40.837 7.423c1.675.622 3.494 1.367 4.296 2.905.802 1.539-.351 3.943-2.119 3.638-.28-.383-.292-.928-.03-1.321.216-.324.608-.58.619-.964.011-.392-.381-.67-.731-.875-1.826-1.073-3.653-2.146-5.479-3.219.761-.934 2.291-.592 3.444-.164zm62.746 3.813.009.347c.028.658.463 1.281 1.071 1.536.436-.756-.205-1.873-1.08-1.883zm-125.19-5.046c-1.445 1.51-3.387 2.437-5.381 2.566.537.623.975 1.347 1.293 2.13-1.343.506-2.604-.891-3.456-2.135-.33-.483-.66-1.178-.299-1.633.143-.18.361-.262.569-.332 2.344-.789 4.849-.994 7.274-.596zm134.48-87.476c-3.645 6.635-7.955 12.906-12.845 18.69-.901 1.066-.294 2.672.324 3.922 9.594 19.397 14.015 41.05 24.028 60.234.863 1.653 1.93 3.425 3.713 3.986s4.16-1.111 3.463-2.84c-10.823-26.837-20.477-55.124-18.683-83.992zm-134.885 66.415c.467.326.464 1.041.431 1.634-.213 3.791.497 7.636 2.042 11.058.519 1.151 2.2.779 3.084-.083s1.611-2.09 2.792-2.303c1.25-.225 2.435.893 2.828 2.178.394 1.284.198 2.679-.002 4.013-.121.812-.294 1.714-.927 2.184s-1.792-.028-1.613-.828l.706-3.158c.091-.409.18-.857.009-1.236-.291-.645-1.169-.707-1.771-.39s-1.051.888-1.618 1.273c-1.813 1.233-4.368.168-5.637-1.682-1.268-1.851-1.582-4.232-1.856-6.505-1.115 3.805-1.478 7.858-1.058 11.819-.564.586-1.358-.427-1.528-1.247-1.097-5.267-.281-10.959 2.241-15.637.4-.741 1.205-1.557 1.877-1.09zm33.405 8.83c-2.667 1.071-4.904 3.143-6.151 5.697-.278.568-1.256.362-1.514-.214-.259-.576-.021-1.245.274-1.804.767-1.453 1.931-2.701 3.338-3.576-1.649-.122-3.298-.245-4.947-.367 2.356-2.376 6.792-2.245 9 .264zm-20.676-3.947c1.2.18 2.115 1.116 2.877 2.038-.765.074-1.499.411-2.046.937.949.993 1.897 1.987 2.845 2.981-2.595.254-5.246-1.507-5.951-3.955-.329-1.14 1.074-2.18 2.275-2.001zm281.637-95.985c8.012 24.806 12.368 50.756 12.891 76.784 5.031-4.443 11.548-7.223 18.278-7.796-3.537 1.242-5.805 4.685-7.061 8.173s-1.769 7.217-3.211 10.634c11.036-3.38 23.115-3.365 34.142.041-9.455 2.698-18.383 7.179-26.159 13.129-1.352-.752-.174-2.775 1.07-3.692 5.018-3.7 10.591-6.67 16.481-8.781-9.369-1.842-19.234-1.172-28.258 1.921 1.656-5.605 3.071-11.278 4.242-17-6.455 3.001-12.354 7.163-17.317 12.22-1.29-1.156.585-2.965 1.915-4.074 3.577-2.982 3.725-8.28 3.489-12.891-.913-17.852-3.296-35.731-8.759-52.775.512 19.212-3.434 38.527-11.451 56.045-.372.814-1.648 1.626-1.929.777.249-.97.498-1.94.747-2.91-2.349-2.987-3.462-6.893-3.033-10.65-4.196 4.961-7.844 10.373-10.859 16.108-1.328.344-1.445-1.882-.794-3.075 3.551-6.504 8.041-12.509 13.294-17.776.572 4.602 1.145 9.204 1.717 13.806 9.243-21.006 12.4-44.576 9.006-67.228.118-.675.887-1.163 1.559-.99zm-266.425 90.187c.543.325.662 1.237.071 1.477-.958.389-.801 1.683-.569 2.638s.054 2.336-.988 2.393c-.905.05-1.36-1.015-1.41-1.865-.051-.849-.076-1.882-.87-2.293-2.495 1.476-4.991 2.952-7.487 4.428-.72-.799.064-1.996.885-2.703 2.382-2.049 5.339-3.504 8.49-4.175.628-.133 1.335-.225 1.878.1zm224.407-3.975c.219.365-.255 1.046-.404.614l-.004-.042c-.256-.011-.493-.307-.535-.67.317-.162.724-.268.943.098zm-340.754-34.829c-.174 2.724-.17 5.459.012 8.182.171 2.544.646 5.357 2.666 6.923.643.498 1.788.709 2.107-.037.077-.183.082-.387.083-.585.032-4.265-.777-8.535-2.368-12.495-.439-1.095-1.383-2.377-2.5-1.988zm155.539-44.433-1.403 11.674c-.443 3.694-.888 7.416-.608 11.125.369 4.897 1.985 9.604 3.634 14.231 1.036 2.909 2.18 5.943 4.521 7.964-1.372-7.599-1.041-15.5.964-22.959.178-.66.369-1.328.358-2.01-.018-1.053-.514-2.03-.973-2.978-2.738-5.652-4.554-11.747-5.355-17.972-.351-.539-1.061.287-1.138.925zm125.582 37.375c-.441 2.171.292 4.543 1.879 6.088.056-2.161-.615-4.335-1.879-6.088zm31.69-150.095c-1.639 7.208-9.592 10.319-15.841 13.973-4.443 2.598-8.448 5.987-11.784 9.973-.793.947-2.249.235-3.379-.22-3.533-1.42-7.815.833-9.419 4.375-1.605 3.541-.851 7.883 1.225 11.153 2.077 3.271 5.303 5.599 8.694 7.351 1.064-.516.738-2.28-.19-3.024-.928-.745-2.172-.936-3.159-1.596-.917-.614-1.545-1.588-2.093-2.564-1.639-2.915-2.813-6.504-1.549-9.611s5.938-4.577 7.873-1.861c2.944 4.132-3.724 10.59-.675 14.641-.291-1.987.83-4.105 2.609-4.929-.118 3.716-.235 7.432-.353 11.148.891-.945 2.13-1.534 3.406-1.621.126 3.411.515 6.811 1.161 10.158.777-.506 1.139-1.598.825-2.488l22.087 20.248c-4.81-2.244-9.301-5.216-13.284-8.789 3.975 7.534.097 16.643-2.268 24.865-2.003 6.961-2.873 14.266-2.562 21.519-1.425-1.519-3.901-.397-5.534.881-5.251 4.106-9.707 9.288-13.031 15.153-.406-.705-.369-1.588-.221-2.394.937-5.112 5.456-8.535 9.442-11.728 3.985-3.194 8.109-7.484 7.695-12.668-.559-7.006 2.669-13.649 4.64-20.378s2.32-15.019-2.703-19.775c-1.74-1.648-3.959-2.681-5.712-4.314-1.754-1.634-3.014-4.285-2.017-6.493-.849.509-1.699 1.018-2.548 1.527-.237-3.416-4.118-4.936-7.037-6.572-5.008-2.807-8.67-8.476-8.268-14.335s5.512-11.255 11.203-10.925c2.444.142 5.582.915 6.796-1.274 4.484-8.09 16.114-9.022 21.395-16.583 1.151-1.647 2.88-3.855 4.576-2.823zm-163.919 80.131-.135.282c.432.102.864.205 1.296.307.566-.602.44-1.792-.346-2.049s-1.536 1.055-.815 1.46zm145.133-29.396c.083 1.222.475 2.424 1.133 3.478-.004-.755 1.262-.957 1.811-.408.548.548.551 1.392.52 2.146 2.539-.265 4.349 2.125 6.251 3.738 4.434 3.759 11.048 3.762 16.992 3.442 1.641-.088 3.826.199 4.079 1.736-2.791.946-5.833.943-8.794.797-4.63-.23-9.323-.806-13.546-2.614-4.224-1.809-7.961-4.999-9.439-9.156-.423-1.189-.315-2.952.993-3.159zm3.312-4.999c1.681 4.439 7.773 6.757 12.185 4.636.789-.379 1.538-.88 2.406-1.036 1.46-.263 2.879.492 4.24 1.061 1.918.802 4.062 1.275 6.112.87s3.962-1.828 4.448-3.775c.125-.5.17-1.052.517-1.445.348-.393 1.157-.437 1.327.051.984 2.812-1.206 5.968-4.098 7.039-2.893 1.07-6.177.501-9.075-.556-.973-.355-1.972-.771-3.012-.696-1.045.075-1.971.634-2.928 1.045-4.436 1.906-10.201.312-12.887-3.565-.443-.639-.819-1.374-.754-2.139.065-.764.718-1.523 1.519-1.49zm45.637-3.547c-.26 1.251-.092 2.589.471 3.736.876-.405 1.404-1.45 1.211-2.396l.007-.004c-.014-.821-.887-1.511-1.689-1.336zm-30.993-2.439c.743.104 1.343.735 1.87 1.357 1.067 1.258 2.057 2.605 2.96 4.028-2.627.738-5.392.796-8.04.17-.817-.193-1.152-1.459-.851-2.368.302-.91 1.014-1.528 1.692-2.095.708-.591 1.506-1.212 2.369-1.092zm-1.501 3.806.252.127 1.748-.394c.195-.32.269-.737.2-1.121-.873-.506-2.08.256-2.2 1.388zm-32.795-14.055c-.985 1.011-1.18 2.622-.859 4.016.561 2.445 2.464 4.438 2.791 6.928.683-.192.985-1.044.939-1.772-.046-.727-.328-1.425-.358-2.153-.1-2.438 2.529-4.957 1.153-6.941-.809-1.166-2.681-1.089-3.666-.078zm50.873-8.753c2.794.193 4.968 2.631 6.48 5.129 1.22 2.018 2.24 4.475 1.549 6.758-.93 3.072-4.358 4.259-7.319 5.01l-3.116.791c-.828.209-1.692.42-2.521.216-1.147-.281-1.989-1.287-2.751-2.238-1.542-1.928-3.175-4.119-3.064-6.644.13-2.94 2.554-5.123 4.871-6.745 1.771-1.24 3.753-2.424 5.871-2.277zm-22.553 4.016c2.663 1.88 4.372 5.187 3.633 8.274-.739 3.086-4.339 5.457-7.483 4.47-2.882-.904-5.864-1.899-8.009-3.95-2.146-2.051-3.171-5.481-1.513-7.911.928-1.36 2.53-2.189 4.175-2.594 3.126-.769 6.6-.123 9.197 1.711zm22.789-.57c-1.751.233-3.544.347-5.189 1.02-1.646.674-3.164 2.043-3.516 3.875-.457 2.372 1.096 4.601 2.554 6.465.684.874 1.935.872 2.996.714 3.225-.479 6.349-1.715 9.08-3.595-1.382-.338-2.765-.677-4.147-1.016.185-.88 1.33-.921 2.181-.888.85.033 2.012-.535 1.704-1.376-1.309-.414-2.682-.6-4.046-.547-.402.016-.873.099-1.052.48-.139.297-.038.648.024.973.41 2.171-1.527 4.461-3.608 4.266-2.082-.195-3.609-2.81-2.846-4.871.764-2.061 3.563-2.877 5.213-1.519.369-.35.333-1.065-.07-1.371 1.216-.885 2.812-1.157 4.229-.722.166-.802-.469-1.59-1.203-1.852-.735-.261-1.535-.138-2.304-.036zm-30.863 1.202c-2.041.257-4.449 1.596-4.079 3.534.259 1.361 1.911 2.156 3.343 1.967s2.641-1.104 3.653-2.091l-4.238.335c-.554.044-1.369-.214-1.168-.71.056-.138.187-.235.316-.317 1.838-1.18 4.492-1.025 6.167.359 1.635.518 3.214 1.678 3.497 3.304.284 1.626-1.389 3.457-3.019 2.922-.144 1.208 1.795 1.582 2.897.978 2.654-1.453 2.903-5.391.972-7.659-1.931-2.269-5.309-3.004-8.341-2.622zm-1.06 6.213c-.215 1.618 1.584 3.161 3.242 2.781-.488-1.248-1.581-2.266-2.899-2.697zm4.101.804 1.76 1.404.052-.255c.745-.385.801-1.573.095-2.02-.705-.447-1.827.065-1.907.871zm25.087-2.466c-.93.092-1.471 1.486-.855 2.23l-.179.015c.565.788 1.922.665 2.332-.224s-.368-2.113-1.298-2.021zm-196.028-112.109c-1.148 1.437-1.534 3.323-1.802 5.14-1.357 9.203-.567 18.713 2.288 27.569.515 1.598 1.125 3.222 2.273 4.451 3.139 3.358 8.567 2.415 13.107 1.644 4.225-.717 8.516-1.051 12.801-.996 1.987.025 3.944-.426 5.879-.876 5.112-1.187 10.225-2.374 15.338-3.561.064-6.803-2.69-13.59-7.481-18.437-.72-.728-1.842-1.449-2.68-.86.922.931.649 2.728-.509 3.344-1.379-.503-.888-2.539-1.274-3.95-.496-1.815-2.6-2.604-4.438-3.032-9.436-2.2-20.409-2.576-26.679-9.938-.583-.685-1.134-1.438-1.925-1.87-1.617-.882-3.75-.065-4.898 1.372zm67.825-28.028c5.467 2.552 10.323 6.527 14.013 11.467.499.668 1 1.435.936 2.28-.116 1.536-1.878 2.2-3.318 2.506-2.549.541-5.098 1.083-7.648 1.624-.932.199-2.399-.228-2.018-1.142 3.07-1.967 6.753-2.863 10.336-2.513.286-.622-.057-1.353-.436-1.918-1.253-1.864-2.968-3.322-4.661-4.754-2.75-2.327-5.499-4.654-8.249-6.981.058-.479.638-.795 1.045-.569zm-20.084-7.553c2.401 1.108 3.27 3.98 3.706 6.543.271 1.592.475 3.222.208 4.814-.467 2.788-2.386 5.222-4.82 6.74-2.435 1.519-5.341 2.192-8.224 2.346-6.677.358-13.463-2.062-18.339-6.539-2.122-1.949-1.836-5.534-.052-7.784s4.639-3.413 7.446-4.168c3.177-.856 6.451-1.311 9.714-1.764 2.24-.311 4.486-.622 6.747-.698 1.228-.041 2.502-.003 3.614.51zm-26.636 9.062c-.736 1.282.476 2.768 1.588 3.756 2.178 1.935 4.908 4.016 7.751 3.274 1.906-.497 3.953-2.193 5.543-1.05-.134.616-.858.913-1.496.994-.639.08-1.336.06-1.858.429-.521.37-.598 1.343.02 1.52 2.017.578 3.896-1.121 5.331-2.623s3.494-3.086 5.419-2.261c.256.109.521.305.525.578.004.398-.503.569-.9.656-2.118.465-4.012 1.832-5.089 3.675 2.82-.402 5.349-1.862 7.796-3.293 1.731-1.011 3.631-2.254 3.981-4.197-2.418.699-4.933 1.078-7.454 1.123-5.276.094-10.406 3.272-15.549 2.12-1.301-.292-2.197-1.425-2.98-2.482.812-.761 2.112-.134 3.172.233 1.061.367 2.764-.194 2.369-1.225-1.245-.518-2.49-1.036-3.735-1.555-1.501-.625-3.635-1.064-4.434.328zm11.845.497c-.369.05-.778.148-.974.458-.282.449.102 1.069.611 1.24.51.171 1.067.033 1.587-.105 1.284-.343 2.567-.686 3.851-1.028-1.608-.601-3.371-.797-5.075-.565zm11.749-2.207c-1.968.724-4.022 1.504-5.403 3.056 3.079-.523 6.214-.736 9.338-.635 1.106-.482.693-2.307-.417-2.78s-2.384-.058-3.518.359zm1.576-4.336c-1.094.087-2.069.674-3.091 1.065-2.904 1.11-6.146.628-9.259.464-2.734-.144-5.492-.028-8.177.501-1.443.284-3.131.971-3.312 2.401 2.46-1.131 5.326-.727 8.036-.532 6.137.444 12.363-.321 18.197-2.236-.023-1.073-1.3-1.749-2.394-1.663zm-43.276.349c-.727.321-1.475.766-1.765 1.503s.183 1.777.977 1.755c2.408-1.679 5.452-2.429 8.369-2.062.923.116 1.867-.632 1.96-1.555-3.072-1.088-6.56-.957-9.541.359zm31.784-12.6.008.108c-.908-.323-2.027.176-2.391 1.065 1.497-.104 2.978-.425 4.383-.95-.005-.823-1.304-.667-2-.223zm19.148-3.297c-.61.277.106 1.415.623.988l.014.048c.462-.369-.097-1.279-.637-1.036z" fill="#00160a"/></g></svg>